<?xml version="1.0" encoding="UTF-8"?>
<svg id="Layer_2" data-name="Layer 2" xmlns="http://www.w3.org/2000/svg" viewBox="0 0 224.95 72.22">
  <defs>
    <style>
      .cls-1 {
        fill: #f89e5c;
      }

      .cls-1, .cls-2, .cls-3, .cls-4 {
        stroke-width: 0px;
      }

      .cls-2 {
        fill: #fff;
      }

      .cls-3 {
        fill: #00a376;
      }

      .cls-4, .cls-5 {
        fill: #231f20;
      }

      .cls-5 {
        font-family: Almarai-ExtraBold, Almarai;
        font-size: 55.09px;
        font-weight: 700;
        opacity: .97;
      }
    </style>
  </defs>
  <g id="Layer_1-2" data-name="Layer 1">
    <text class="cls-5" transform="translate(48.57 47.27)"><tspan x="0" y="0">ddBall</tspan></text>
    <path class="cls-1" d="M47.78,25.24c-.13-6.18-1.85-9.8-2.4-10.73-.08.01-.16.02-.24.02-.03,0-.06,0-.08,0-3.99,3.71-15.64,10.06-18.9,8.37-3.66-1.9-15.95,1.41-25.36,6.81.44,2.56,1.45,5.09,2.9,7.44.74.12,1.06.82.97,1.45,4.34,6.05,11.64,10.53,19.51,10.49,13.11-.07,23.88-10.75,23.61-23.85Z"/>
    <path class="cls-3" d="M44.16,12.52C40.12,6.15,34.62.16,23.62.21,10.51.28-.06,10.96,0,24.06c0,1.64.41,8.74,3.68,13.09.13.02.26.06.36.12,9.17-5.85,18.7-16.15,22.33-14.26,3.23,1.68,8.93-5.72,17.78-8.96-.3-.44-.3-1.09,0-1.53Z"/>
    <path class="cls-4" d="M26.67,23.6s4.98,13.45-.91,25.44l-.78.04s6.2-10.71,1.12-25.43c.28-.03.57-.06.57-.06Z"/>
    <path class="cls-4" d="M9.06,43.24s7.24-11.68,18.44-11.57c11.2.11,15.46,8.28,15.46,8.28l-.72.67s-4.73-8.26-14.88-8.21c-10.14.05-17.65,11.39-17.65,11.39l-.65-.56Z"/>
    <path class="cls-4" d="M4.36,10.23s10.25,9.82,21.08,6.99c10.83-2.84,10.46-13.65,10.46-13.65l-.86-.49s-.07,11.03-9.91,13.45c-9.85,2.43-20.25-7.01-20.25-7.01l-.52.71Z"/>
    <path class="cls-4" d="M20.36,25.69s22.46-.35,27.41-.44v.73s-28.53.34-28.53.34l1.12-.62Z"/>
    <path class="cls-4" d="M25.55,21.85S18.25,5.25,15.45,1.7c.2-.07.53-.19.53-.19,0,0,4.73,6.6,10.26,20.32-.52.02-.69.03-.69.03Z"/>
    <polyline class="cls-4" points="17.13 25.6 .04 25.32 .12 26.31 16.24 26.23"/>
    <path class="cls-2" d="M44.01,12.82c-1.55,1.36-10.46,8.84-18.28,9.03-7.48.18-21.06,14.39-21.95,15.32.64.15.94.76.89,1.34.87-.94,13.33-14.22,21.86-14.9,8.16-.65,17.26-7.95,18.62-9.07-1.01,0-1.39-.98-1.13-1.72Z"/>
  </g>
</svg>